<?xml version="1.0" standalone="no"?>
<!DOCTYPE svg PUBLIC "-//W3C//DTD SVG 20010904//EN"
 "http://www.w3.org/TR/2001/REC-SVG-20010904/DTD/svg10.dtd">
<svg version="1.0" xmlns="http://www.w3.org/2000/svg"
 width="225.000000pt" height="225.000000pt" viewBox="0 0 225.000000 225.000000"
 preserveAspectRatio="xMidYMid meet">

<g transform="translate(0.000000,225.000000) scale(0.100000,-0.100000)"
fill="#000000" stroke="none">
<path d="M910 2191 c-202 -43 -376 -133 -520 -269 -232 -217 -350 -486 -350
-797 0 -533 377 -979 905 -1071 122 -22 327 -14 445 16 201 53 352 140 505
294 148 148 232 295 286 502 21 77 24 112 24 259 0 147 -3 182 -24 260 -55
211 -141 357 -301 515 -159 157 -323 245 -545 291 -118 25 -308 24 -425 0z
m-246 -922 l211 -306 3 308 2 309 35 0 35 0 0 -370 0 -370 -37 0 -38 1 -217
316 -218 316 0 -316 0 -317 -35 0 -35 0 0 371 0 370 42 -3 41 -3 211 -306z
m816 281 l0 -30 -150 0 -150 0 0 -135 0 -135 135 0 135 0 0 -35 0 -35 -135 0
-135 0 0 -135 0 -135 155 0 155 0 0 -35 0 -35 -190 0 -190 0 0 370 0 370 185
0 185 0 0 -30z m570 0 l0 -30 -110 0 -110 0 0 -340 0 -340 -35 0 -35 0 0 340
0 340 -105 0 -105 0 0 30 0 30 250 0 250 0 0 -30z m-1826 -636 c9 -8 16 -22
16 -30 0 -19 -36 -54 -55 -54 -16 0 -55 34 -55 48 0 4 7 18 16 30 18 26 56 29
78 6z"/>
</g>
</svg>
