<svg id="svg" version="1.1" xmlns="http://www.w3.org/2000/svg" xmlns:xlink="http://www.w3.org/1999/xlink" width="400" height="400" viewBox="0, 0, 400,400"><g id="svgg"><path id="path0" d="M66.000 66.000 C 64.916 67.084,64.557 147.517,65.631 148.591 C 65.903 148.863,79.665 149.032,106.624 149.096 C 154.196 149.209,148.574 149.999,148.994 143.142 C 149.539 134.244,149.064 66.599,148.451 65.861 C 147.507 64.724,67.140 64.860,66.000 66.000 M158.264 66.987 C 157.636 71.566,157.974 147.917,158.625 148.568 C 159.375 149.317,240.931 149.558,241.392 148.812 C 241.703 148.309,241.700 66.085,241.389 65.582 C 241.241 65.343,225.655 65.200,199.831 65.200 L 158.509 65.200 158.264 66.987 M251.573 65.832 C 250.292 67.377,250.577 147.320,251.869 148.612 C 252.902 149.645,333.821 149.483,334.375 148.446 C 335.280 146.755,334.922 66.922,334.005 66.005 C 332.886 64.886,252.499 64.717,251.573 65.832 M252.200 157.676 C 251.760 157.927,251.268 158.327,251.106 158.566 C 250.704 159.160,250.732 239.673,251.134 240.307 C 251.311 240.586,252.072 240.991,252.825 241.207 C 254.363 241.648,325.108 241.768,331.139 241.340 L 334.800 241.080 334.800 200.010 L 334.800 158.939 333.884 158.079 L 332.969 157.219 292.984 157.220 C 263.805 157.220,252.784 157.343,252.200 157.676 " stroke="none" fill="#f4ad09" fill-rule="evenodd"></path><path id="path1" d="M158.498 199.100 L 158.600 241.000 200.096 241.102 L 241.593 241.204 241.696 200.302 C 241.753 177.806,241.743 158.905,241.673 158.300 L 241.547 157.200 199.972 157.200 L 158.396 157.200 158.498 199.100 M66.698 251.094 L 65.196 251.249 65.298 292.924 L 65.400 334.600 107.000 334.600 L 148.600 334.600 148.702 292.900 L 148.804 251.200 109.035 251.200 C 87.162 251.200,69.026 251.141,68.733 251.070 C 68.440 250.998,67.524 251.009,66.698 251.094 M291.300 251.102 L 251.200 251.204 251.200 293.004 L 251.200 334.804 292.900 334.702 L 334.600 334.600 334.702 293.222 C 334.758 270.464,334.668 251.721,334.502 251.570 C 333.909 251.034,330.911 251.001,291.300 251.102 M158.267 251.467 C 157.934 251.800,157.910 333.300,158.243 334.167 C 158.462 334.739,162.517 334.800,200.043 334.800 L 241.600 334.800 241.600 293.000 L 241.600 251.200 200.067 251.200 C 177.223 251.200,158.413 251.320,158.267 251.467 " stroke="none" fill="#4c4e4c" fill-rule="evenodd"></path><path id="path2" d="M0.000 200.000 L 0.000 400.000 200.000 400.000 L 400.000 400.000 400.000 200.000 L 400.000 0.000 200.000 0.000 L 0.000 0.000 0.000 200.000 M149.651 64.661 C 150.358 65.513,150.686 145.452,149.993 148.026 C 149.762 148.884,149.231 149.769,148.813 149.993 C 147.791 150.540,66.463 150.556,65.026 150.010 L 64.000 149.620 64.000 107.736 L 64.000 65.852 64.870 64.926 L 65.739 64.000 107.421 64.000 C 145.701 64.000,149.147 64.054,149.651 64.661 M242.486 64.900 C 243.456 66.597,243.216 148.477,242.238 149.558 L 241.476 150.400 199.982 150.400 C 161.057 150.400,158.436 150.357,157.633 149.700 L 156.778 149.000 156.796 108.000 C 156.814 68.247,156.870 65.570,157.707 64.500 C 158.015 64.106,166.961 64.000,200.035 64.000 L 241.972 64.000 242.486 64.900 M335.100 64.777 L 336.000 65.528 336.000 107.233 C 336.000 145.478,335.945 148.998,335.338 149.669 C 334.435 150.667,251.935 150.826,250.576 149.832 C 249.555 149.085,249.333 65.886,250.349 64.661 C 251.257 63.567,333.785 63.680,335.100 64.777 M335.158 156.962 L 336.000 157.724 336.000 199.613 C 336.000 236.481,335.928 241.562,335.396 242.003 C 334.331 242.887,251.318 242.631,250.334 241.741 C 249.139 240.658,249.382 157.441,250.584 156.562 C 251.980 155.542,334.017 155.930,335.158 156.962 M242.702 199.157 C 242.776 229.976,242.682 241.460,242.353 241.857 C 241.619 242.741,158.714 242.657,157.829 241.771 C 157.171 241.114,156.816 157.717,157.468 157.065 C 157.616 156.917,176.831 156.842,200.168 156.898 L 242.600 157.000 242.702 199.157 M149.520 250.480 C 150.473 251.433,150.185 334.673,149.226 335.186 C 148.039 335.821,65.517 335.757,64.880 335.120 C 64.356 334.596,64.146 250.788,64.667 250.267 C 65.188 249.746,148.996 249.956,149.520 250.480 M242.368 250.741 C 242.995 251.912,242.919 334.086,242.290 334.943 C 241.541 335.962,158.066 335.972,157.317 334.952 C 156.691 334.099,156.604 251.913,157.228 250.748 C 157.851 249.583,241.745 249.577,242.368 250.741 M335.600 292.400 C 335.739 321.637,335.671 334.756,335.379 335.107 C 334.801 335.802,251.381 335.848,250.544 335.154 C 249.849 334.576,249.722 252.066,250.415 250.772 C 250.822 250.011,251.630 249.998,293.115 250.098 L 335.400 250.200 335.600 292.400 " stroke="none" fill="#fbfbfb" fill-rule="evenodd"></path><path id="path3" d="M64.870 64.926 L 64.000 65.852 64.000 107.736 L 64.000 149.620 65.026 150.010 C 66.463 150.556,147.791 150.540,148.813 149.993 C 149.231 149.769,149.762 148.884,149.993 148.026 C 150.686 145.452,150.358 65.513,149.651 64.661 C 149.147 64.054,145.701 64.000,107.421 64.000 L 65.739 64.000 64.870 64.926 M157.707 64.500 C 156.870 65.570,156.814 68.247,156.796 108.000 L 156.778 149.000 157.633 149.700 C 158.436 150.357,161.057 150.400,199.982 150.400 L 241.476 150.400 242.238 149.558 C 243.216 148.477,243.456 66.597,242.486 64.900 L 241.972 64.000 200.035 64.000 C 166.961 64.000,158.015 64.106,157.707 64.500 M250.349 64.661 C 249.333 65.886,249.555 149.085,250.576 149.832 C 251.935 150.826,334.435 150.667,335.338 149.669 C 335.945 148.998,336.000 145.478,336.000 107.233 L 336.000 65.528 335.100 64.777 C 333.785 63.680,251.257 63.567,250.349 64.661 M148.451 65.861 C 149.064 66.599,149.539 134.244,148.994 143.142 C 148.574 149.999,154.196 149.209,106.624 149.096 C 79.665 149.032,65.903 148.863,65.631 148.591 C 64.557 147.517,64.916 67.084,66.000 66.000 C 67.140 64.860,147.507 64.724,148.451 65.861 M241.389 65.582 C 241.700 66.085,241.703 148.309,241.392 148.812 C 240.931 149.558,159.375 149.317,158.625 148.568 C 157.974 147.917,157.636 71.566,158.264 66.987 L 158.509 65.200 199.831 65.200 C 225.655 65.200,241.241 65.343,241.389 65.582 M334.005 66.005 C 334.922 66.922,335.280 146.755,334.375 148.446 C 333.821 149.483,252.902 149.645,251.869 148.612 C 250.577 147.320,250.292 67.377,251.573 65.832 C 252.499 64.717,332.886 64.886,334.005 66.005 M250.584 156.562 C 249.382 157.441,249.139 240.658,250.334 241.741 C 251.318 242.631,334.331 242.887,335.396 242.003 C 335.928 241.562,336.000 236.481,336.000 199.613 L 336.000 157.724 335.158 156.962 C 334.017 155.930,251.980 155.542,250.584 156.562 M157.467 157.067 C 156.816 157.718,157.172 241.115,157.829 241.771 C 158.714 242.657,241.619 242.741,242.353 241.857 C 243.049 241.018,242.789 157.105,242.090 156.963 C 241.810 156.906,241.764 156.952,241.990 157.063 C 242.623 157.377,242.554 240.886,241.920 241.520 C 240.967 242.473,158.527 242.185,158.014 241.226 C 157.360 240.005,157.445 157.329,158.100 157.065 C 158.379 156.952,158.409 156.849,158.167 156.832 C 157.928 156.814,157.613 156.920,157.467 157.067 M333.884 158.079 L 334.800 158.939 334.800 200.010 L 334.800 241.080 331.139 241.340 C 325.108 241.768,254.363 241.648,252.825 241.207 C 252.072 240.991,251.311 240.586,251.134 240.307 C 250.732 239.673,250.704 159.160,251.106 158.566 C 251.999 157.246,252.816 157.220,292.984 157.220 L 332.969 157.219 333.884 158.079 M64.667 250.267 C 64.146 250.788,64.356 334.596,64.880 335.120 C 65.517 335.757,148.039 335.821,149.226 335.186 C 150.185 334.673,150.473 251.433,149.520 250.480 C 148.996 249.956,65.188 249.746,64.667 250.267 M157.228 250.748 C 156.604 251.913,156.691 334.099,157.317 334.952 C 158.026 335.917,241.536 335.969,242.243 335.006 C 242.487 334.674,242.688 333.277,242.689 331.901 C 242.691 329.429,242.687 329.421,242.357 331.156 C 242.173 332.122,242.119 333.069,242.237 333.260 C 242.355 333.451,242.338 333.966,242.199 334.404 C 241.806 335.642,158.145 335.662,157.687 334.424 C 157.529 333.997,157.490 314.962,157.600 292.124 L 157.800 250.600 199.866 250.498 L 241.932 250.396 242.334 251.498 C 242.556 252.104,242.751 252.363,242.768 252.074 C 242.786 251.784,242.614 251.199,242.386 250.774 C 241.747 249.580,157.866 249.555,157.228 250.748 M250.414 250.774 C 249.722 252.066,249.849 334.577,250.544 335.154 C 251.381 335.848,334.801 335.802,335.379 335.107 C 335.671 334.756,335.739 321.637,335.600 292.400 L 335.400 250.200 332.400 250.161 L 329.400 250.122 332.200 250.361 L 335.000 250.600 335.000 292.800 L 335.000 335.000 292.800 335.000 L 250.600 335.000 250.498 293.243 C 250.424 262.809,250.518 251.340,250.845 250.945 C 251.216 250.498,258.100 250.386,290.347 250.300 L 329.400 250.196 290.114 250.098 C 251.630 250.002,250.820 250.016,250.414 250.774 M149.357 251.033 C 149.491 251.381,149.600 270.367,149.600 293.225 L 149.600 334.785 148.700 335.002 C 148.205 335.122,129.170 335.170,106.400 335.110 L 65.000 335.000 64.897 293.200 C 64.840 270.210,64.880 251.175,64.984 250.900 C 65.309 250.049,149.030 250.181,149.357 251.033 M242.498 291.467 C 242.444 311.524,242.296 328.264,242.170 328.667 C 241.963 329.325,241.984 329.331,242.372 328.732 C 242.676 328.262,242.773 317.194,242.700 291.532 L 242.596 255.000 242.498 291.467 " stroke="none" fill="#daca95" fill-rule="evenodd"></path><path id="path4" d="M158.100 157.065 C 157.445 157.329,157.360 240.005,158.014 241.226 C 158.527 242.185,240.967 242.473,241.920 241.520 C 242.752 240.688,242.601 157.363,241.767 157.043 C 241.011 156.752,158.821 156.774,158.100 157.065 M241.673 158.300 C 241.743 158.905,241.753 177.806,241.696 200.302 L 241.593 241.204 200.096 241.102 L 158.600 241.000 158.498 199.100 L 158.396 157.200 199.972 157.200 L 241.547 157.200 241.673 158.300 M290.147 250.302 C 258.067 250.386,251.216 250.498,250.845 250.945 C 250.518 251.340,250.424 262.809,250.498 293.243 L 250.600 335.000 292.800 335.000 L 335.000 335.000 335.000 292.800 L 335.000 250.600 332.000 250.400 C 330.350 250.290,311.516 250.246,290.147 250.302 M64.984 250.900 C 64.880 251.175,64.840 270.210,64.897 293.200 L 65.000 335.000 106.400 335.110 C 129.170 335.170,148.205 335.122,148.700 335.002 L 149.600 334.785 149.600 293.225 C 149.600 270.367,149.491 251.381,149.357 251.033 C 149.030 250.181,65.309 250.049,64.984 250.900 M157.827 250.756 C 157.532 251.233,157.522 334.350,157.816 334.827 C 158.242 335.515,241.872 335.311,242.137 334.621 C 242.443 333.822,242.467 251.841,242.161 251.043 C 241.881 250.312,158.277 250.028,157.827 250.756 M109.035 251.200 L 148.804 251.200 148.702 292.900 L 148.600 334.600 107.000 334.600 L 65.400 334.600 65.298 292.924 L 65.196 251.249 66.698 251.094 C 67.524 251.009,68.440 250.998,68.733 251.070 C 69.026 251.141,87.162 251.200,109.035 251.200 M334.502 251.570 C 334.668 251.721,334.758 270.464,334.702 293.222 L 334.600 334.600 292.900 334.702 L 251.200 334.804 251.200 293.004 L 251.200 251.204 291.300 251.102 C 330.911 251.001,333.909 251.034,334.502 251.570 M241.600 293.000 L 241.600 334.800 200.043 334.800 C 162.517 334.800,158.462 334.739,158.243 334.167 C 157.910 333.300,157.934 251.800,158.267 251.467 C 158.413 251.320,177.223 251.200,200.067 251.200 L 241.600 251.200 241.600 293.000 " stroke="none" fill="#8f8e8f" fill-rule="evenodd"></path></g></svg>